<svg width="28" height="28" viewBox="0 0 28 28" fill="none" xmlns="http://www.w3.org/2000/svg">
<path d="M24.8087 19.6444L19.8897 14.7169V11.0635C19.8903 10.9524 19.869 10.8424 19.827 10.7396C19.785 10.6368 19.7232 10.5433 19.645 10.4644L11.2075 2.02692C11.129 1.94784 11.0357 1.88507 10.9329 1.84223C10.8301 1.7994 10.7198 1.77734 10.6084 1.77734C10.497 1.77734 10.3867 1.7994 10.2839 1.84223C10.1811 1.88507 10.0878 1.94784 10.0093 2.02692L2.4156 9.62067C2.33651 9.69911 2.27374 9.79243 2.23091 9.89525C2.18807 9.99807 2.16602 10.1084 2.16602 10.2197C2.16602 10.3311 2.18807 10.4414 2.23091 10.5442C2.27374 10.647 2.33651 10.7404 2.4156 10.8188L10.8531 19.2563C10.9319 19.3345 11.0254 19.3964 11.1282 19.4384C11.231 19.4803 11.3411 19.5016 11.4522 19.501H15.114L20.0331 24.4285C20.6664 25.0618 21.5253 25.4176 22.4209 25.4176C23.3165 25.4176 24.1754 25.0618 24.8087 24.4285C25.442 23.7952 25.7978 22.9363 25.7978 22.0407C25.7978 21.1451 25.442 20.2861 24.8087 19.6529V19.6444ZM5.54591 8.87817L7.4781 10.8188L8.67622 9.62067L6.7356 7.68849L8.07716 6.34692L11.6968 9.97505L12.895 8.77692L9.26684 5.15724L10.6084 3.81567L16.1687 9.37599L9.76466 15.78L4.20435 10.2197L5.54591 8.87817ZM23.6106 23.2219C23.2944 23.5362 22.8667 23.7126 22.4209 23.7126C21.9751 23.7126 21.5474 23.5362 21.2312 23.2219L16.059 18.0582C15.8792 17.9345 15.6749 17.8511 15.46 17.8135H11.7981L10.9543 16.9697L17.3584 10.5657L18.2022 11.4094V15.0713C18.2031 15.2926 18.291 15.5048 18.4468 15.6619L23.6106 20.8425C23.9249 21.1587 24.1013 21.5864 24.1013 22.0322C24.1013 22.4781 23.9249 22.9058 23.6106 23.2219Z" fill="url(#paint0_linear_6_270)"/>
<path d="M23.6106 23.2219C23.2944 23.5362 22.8667 23.7126 22.4209 23.7126C21.9751 23.7126 21.5474 23.5362 21.2312 23.2219L16.059 18.0582C15.8792 17.9345 15.6749 17.8511 15.46 17.8135H11.7981L10.9543 16.9697L17.3584 10.5657L18.2022 11.4094V15.0713C18.2031 15.2926 18.291 15.5048 18.4468 15.6619L23.6106 20.8425C23.9249 21.1587 24.1013 21.5864 24.1013 22.0322C24.1013 22.4781 23.9249 22.9058 23.6106 23.2219Z" fill="url(#paint1_linear_6_270)"/>
<defs>
<linearGradient id="paint0_linear_6_270" x1="13.9819" y1="1.77734" x2="13.9819" y2="25.4176" gradientUnits="userSpaceOnUse">
<stop stop-color="#FFA764"/>
<stop offset="1" stop-color="#F17F29"/>
</linearGradient>
<linearGradient id="paint1_linear_6_270" x1="13.9819" y1="1.77734" x2="13.9819" y2="25.4176" gradientUnits="userSpaceOnUse">
<stop stop-color="#FFA764"/>
<stop offset="1" stop-color="#F17F29"/>
</linearGradient>
</defs>
</svg>
