<svg width="13" height="11" viewBox="0 0 13 11" fill="none" xmlns="http://www.w3.org/2000/svg">
<path d="M8.89061 1.10303H1.39014V7.60343H8.89061V1.10303Z" stroke="black" stroke-width="1.00006" stroke-linecap="round" stroke-linejoin="round"/>
<path d="M8.89062 3.60352H10.8908L12.3908 5.10361V7.60377H8.89062V3.60352Z" stroke="black" stroke-width="1.00006" stroke-linecap="round" stroke-linejoin="round"/>
<path d="M3.64021 10.1032C4.33061 10.1032 4.89029 9.5435 4.89029 8.85311C4.89029 8.16271 4.33061 7.60303 3.64021 7.60303C2.94982 7.60303 2.39014 8.16271 2.39014 8.85311C2.39014 9.5435 2.94982 10.1032 3.64021 10.1032Z" stroke="black" stroke-width="1.00006" stroke-linecap="round" stroke-linejoin="round"/>
<path d="M10.1407 10.1032C10.8311 10.1032 11.3908 9.5435 11.3908 8.85311C11.3908 8.16271 10.8311 7.60303 10.1407 7.60303C9.4503 7.60303 8.89062 8.16271 8.89062 8.85311C8.89062 9.5435 9.4503 10.1032 10.1407 10.1032Z" stroke="black" stroke-width="1.00006" stroke-linecap="round" stroke-linejoin="round"/>
</svg>
