<svg width="16" height="14" viewBox="0 0 16 14" fill="none" xmlns="http://www.w3.org/2000/svg">
<path d="M6.02123 0.249988L6.66083 0.879593C6.86281 1.07515 7.02281 1.30982 7.13106 1.56927C7.23931 1.82873 7.29354 2.10753 7.29044 2.38865V6.70594C7.27898 7.62216 7.07109 8.52526 6.68082 9.35428C6.272 10.254 5.69151 11.0654 4.97189 11.7428C4.26282 12.418 3.3922 12.8998 2.44348 13.1419C2.38076 13.154 2.31631 13.154 2.2536 13.1419C2.07704 13.1428 1.90631 13.0788 1.7739 12.962C1.70467 12.9088 1.64813 12.8408 1.60838 12.763C1.56863 12.6852 1.54665 12.5996 1.54404 12.5123C1.52655 12.3387 1.57272 12.1647 1.67396 12.0226C1.76687 11.88 1.90925 11.7767 2.07371 11.7328C3.029 11.4348 3.88103 10.8737 4.53217 10.1138C5.18116 9.34651 5.60949 8.41731 5.77139 7.42549H2.2536C1.96824 7.43127 1.68482 7.37736 1.42151 7.26722C1.1582 7.15708 0.920807 6.99313 0.724554 6.78589C0.519337 6.5865 0.357494 6.3469 0.249156 6.08207C0.140819 5.81725 0.0883206 5.53291 0.0949487 5.24686V2.40863C0.0897003 2.12425 0.14287 1.84182 0.251166 1.57881C0.359463 1.31581 0.520582 1.07783 0.724554 0.879593C0.922786 0.675621 1.16077 0.514502 1.42378 0.406205C1.68678 0.297909 1.96921 0.244739 2.2536 0.249988H6.02123ZM1.54404 5.55666L1.75391 5.77652C1.81536 5.84832 1.89218 5.90537 1.97868 5.94343C2.06518 5.98149 2.15915 5.99959 2.2536 5.99639H5.84135V2.40863C5.84235 2.31246 5.82432 2.21703 5.78831 2.12784C5.75229 2.03865 5.69899 1.95747 5.63148 1.88896C5.56341 1.81523 5.47943 1.75801 5.38591 1.72164C5.29239 1.68527 5.19181 1.67072 5.09182 1.67909H2.2536C2.16116 1.67721 2.06929 1.69393 1.98345 1.72827C1.89761 1.76261 1.81955 1.81385 1.75391 1.87897C1.68576 1.94492 1.63194 2.02423 1.59583 2.11193C1.55972 2.19962 1.54209 2.29383 1.54404 2.38865V5.55666ZM14.6458 0.249988L15.2754 0.879593C15.4774 1.07515 15.6374 1.30982 15.7457 1.56927C15.8539 1.82873 15.9081 2.10753 15.905 2.38865V6.70594C15.8936 7.62216 15.6857 8.52526 15.2954 9.35428C14.8938 10.2582 14.3124 11.0709 13.5865 11.7428C12.8875 12.4157 12.0271 12.8975 11.0881 13.1419C11.0287 13.154 10.9675 13.154 10.9082 13.1419C10.7282 13.1453 10.5535 13.0811 10.4185 12.962C10.3525 12.9058 10.2982 12.8372 10.2588 12.76C10.2194 12.6829 10.1955 12.5987 10.1886 12.5123C10.1754 12.3391 10.2212 12.1665 10.3185 12.0226C10.4114 11.88 10.5538 11.7767 10.7183 11.7328C11.6786 11.4295 12.5318 10.8572 13.1767 10.0838C13.8289 9.31738 14.2607 8.3882 14.426 7.39551H10.8782C10.5928 7.40129 10.3094 7.34738 10.0461 7.23724C9.78279 7.12709 9.5454 6.96315 9.34915 6.75591C9.14764 6.56 8.98795 6.32526 8.87973 6.06589C8.77152 5.80651 8.71702 5.52789 8.71954 5.24686V2.40863C8.71429 2.12425 8.76746 1.84182 8.87576 1.57881C8.98406 1.31581 9.14518 1.07783 9.34915 0.879593C9.54738 0.675621 9.78536 0.514502 10.0484 0.406205C10.3114 0.297909 10.5938 0.244739 10.8782 0.249988H14.6458ZM10.1586 5.55666L10.3685 5.77652C10.4328 5.84748 10.5116 5.90383 10.5995 5.94176C10.6874 5.97969 10.7825 5.99831 10.8782 5.99639H14.4659V2.40863C14.4669 2.31246 14.4489 2.21703 14.4129 2.12784C14.3769 2.03865 14.3236 1.95747 14.2561 1.88896C14.1901 1.82081 14.1108 1.767 14.0231 1.73089C13.9354 1.69478 13.8412 1.67714 13.7464 1.67909H10.8782C10.6888 1.67703 10.506 1.7487 10.3685 1.87897C10.3004 1.94492 10.2465 2.02423 10.2104 2.11193C10.1743 2.19962 10.1567 2.29383 10.1586 2.38865V5.55666Z" fill="white" fill-opacity="0.9"/>
</svg>
