<svg width="36" height="36" viewBox="0 0 36 36" fill="none" xmlns="http://www.w3.org/2000/svg">
<path d="M32.6482 17.5916C31.3143 11.5612 29.3069 8.34249 26.3291 7.4633C25.7031 7.27969 25.0538 7.18797 24.4015 7.19099C23.5393 7.19099 22.7884 7.40104 21.9941 7.62367C21.037 7.8922 19.9496 8.19722 18.3642 8.19722C16.7787 8.19722 15.6908 7.89283 14.7317 7.6243C13.9368 7.40104 13.1865 7.19099 12.3268 7.19099C11.6523 7.18865 10.9807 7.28009 10.3313 7.46267C7.36927 8.33809 5.36311 11.5555 4.00973 17.5878C2.55448 24.0792 3.27079 28.1777 6.01841 29.1286C6.39504 29.2614 6.79132 29.3298 7.19066 29.3311C9.07293 29.3311 10.5823 27.7633 11.6137 26.4797C12.779 25.027 14.1431 24.2899 18.3642 24.2899C22.1344 24.2899 23.6947 24.8012 25.0424 26.4797C25.8895 27.535 26.6901 28.2733 27.4887 28.7381C28.5509 29.3556 29.6125 29.4927 30.6433 29.1387C32.2671 28.5846 33.1978 27.1199 33.4104 24.7842C33.572 22.9931 33.323 20.6405 32.6482 17.5916ZM15.3455 17.2532H13.333V19.2657C13.333 19.5326 13.227 19.7885 13.0383 19.9772C12.8496 20.1659 12.5937 20.2719 12.3268 20.2719C12.0599 20.2719 11.804 20.1659 11.6153 19.9772C11.4266 19.7885 11.3206 19.5326 11.3206 19.2657V17.2532H9.30814C9.04127 17.2532 8.78533 17.1472 8.59663 16.9585C8.40793 16.7698 8.30191 16.5139 8.30191 16.247C8.30191 15.9802 8.40793 15.7242 8.59663 15.5355C8.78533 15.3468 9.04127 15.2408 9.30814 15.2408H11.3206V13.2283C11.3206 12.9615 11.4266 12.7055 11.6153 12.5168C11.804 12.3281 12.0599 12.2221 12.3268 12.2221C12.5937 12.2221 12.8496 12.3281 13.0383 12.5168C13.227 12.7055 13.333 12.9615 13.333 13.2283V15.2408H15.3455C15.6124 15.2408 15.8683 15.3468 16.057 15.5355C16.2457 15.7242 16.3517 15.9802 16.3517 16.247C16.3517 16.5139 16.2457 16.7698 16.057 16.9585C15.8683 17.1472 15.6124 17.2532 15.3455 17.2532ZM20.6282 17.5048C20.3794 17.5048 20.1362 17.431 19.9294 17.2928C19.7225 17.1546 19.5613 16.9582 19.4661 16.7284C19.3709 16.4985 19.346 16.2456 19.3946 16.0016C19.4431 15.7577 19.5629 15.5335 19.7388 15.3576C19.9147 15.1817 20.1388 15.0619 20.3828 15.0134C20.6268 14.9649 20.8797 14.9898 21.1095 15.085C21.3393 15.1802 21.5358 15.3414 21.674 15.5482C21.8122 15.7551 21.886 15.9983 21.886 16.247C21.886 16.5806 21.7534 16.9005 21.5176 17.1364C21.2817 17.3723 20.9618 17.5048 20.6282 17.5048ZM23.3953 20.2719C23.1464 20.2719 22.9031 20.1981 22.6962 20.0597C22.4893 19.9214 22.3281 19.7248 22.233 19.4947C22.1379 19.2647 22.1131 19.0117 22.1619 18.7676C22.2107 18.5235 22.3308 18.2994 22.507 18.1236C22.6832 17.9479 22.9077 17.8283 23.1518 17.7801C23.396 17.732 23.649 17.7573 23.8788 17.853C24.1086 17.9487 24.3048 18.1104 24.4426 18.3176C24.5805 18.5249 24.6537 18.7684 24.6531 19.0173C24.6522 19.3503 24.5194 19.6694 24.2836 19.9046C24.0478 20.1398 23.7283 20.2719 23.3953 20.2719ZM23.3953 14.7377C23.1465 14.7377 22.9034 14.6639 22.6965 14.5257C22.4897 14.3875 22.3285 14.1911 22.2333 13.9612C22.1381 13.7314 22.1132 13.4785 22.1617 13.2345C22.2102 12.9905 22.33 12.7664 22.5059 12.5905C22.6818 12.4146 22.9059 12.2948 23.1499 12.2463C23.3939 12.1978 23.6468 12.2227 23.8766 12.3179C24.1065 12.4131 24.3029 12.5743 24.4411 12.7811C24.5793 12.988 24.6531 13.2311 24.6531 13.4799C24.6531 13.8135 24.5206 14.1334 24.2847 14.3693C24.0488 14.6052 23.7289 14.7377 23.3953 14.7377ZM26.1624 17.5048C25.9137 17.5048 25.6705 17.431 25.4636 17.2928C25.2568 17.1546 25.0956 16.9582 25.0004 16.7284C24.9052 16.4985 24.8803 16.2456 24.9288 16.0016C24.9773 15.7577 25.0971 15.5335 25.273 15.3576C25.4489 15.1817 25.6731 15.0619 25.917 15.0134C26.161 14.9649 26.4139 14.9898 26.6437 15.085C26.8736 15.1802 27.07 15.3414 27.2082 15.5482C27.3464 15.7551 27.4202 15.9983 27.4202 16.247C27.4202 16.5806 27.2877 16.9005 27.0518 17.1364C26.8159 17.3723 26.496 17.5048 26.1624 17.5048Z" fill="url(#paint0_linear_6_275)"/>
<defs>
<linearGradient id="paint0_linear_6_275" x1="18.3655" y1="7.19092" x2="18.3655" y2="29.3311" gradientUnits="userSpaceOnUse">
<stop stop-color="#22B04A"/>
<stop offset="1" stop-color="#1E9540"/>
</linearGradient>
</defs>
</svg>
