<svg width="36" height="36" viewBox="0 0 36 36" fill="none" xmlns="http://www.w3.org/2000/svg">
<path d="M17.6017 5.42725C16.9017 5.42725 16.6684 5.89391 16.2017 6.36058L2.66839 28.5272C2.43506 28.7606 2.43506 29.2272 2.43506 29.4606C2.43506 30.6272 3.36839 31.0939 4.06839 31.0939H31.1351C32.0684 31.0939 32.7684 30.6272 32.7684 29.4606C32.7684 28.9939 32.7684 28.9939 32.5351 28.5272L19.2351 6.36058C18.7684 5.89391 18.3017 5.42725 17.6017 5.42725ZM17.6017 8.92725L25.3017 21.7606H23.4351L19.9351 18.2606L17.6017 21.7606L15.2684 18.2606L11.7684 21.7606H9.66839L17.6017 8.92725Z" fill="url(#paint0_linear_6_225)"/>
<defs>
<linearGradient id="paint0_linear_6_225" x1="17.6017" y1="5.42725" x2="17.6017" y2="31.0939" gradientUnits="userSpaceOnUse">
<stop stop-color="#7CB4F9"/>
<stop offset="1" stop-color="#6DA2E4"/>
</linearGradient>
</defs>
</svg>
