<svg width="13" height="13" viewBox="0 0 13 13" fill="none" xmlns="http://www.w3.org/2000/svg">
<path d="M5.40139 11.5904C5.67755 11.5904 5.90142 11.3665 5.90142 11.0904C5.90142 10.8142 5.67755 10.5903 5.40139 10.5903C5.12524 10.5903 4.90137 10.8142 4.90137 11.0904C4.90137 11.3665 5.12524 11.5904 5.40139 11.5904Z" stroke="#404040" stroke-width="0.996054" stroke-linecap="round" stroke-linejoin="round"/>
<path d="M10.9009 11.5904C11.1771 11.5904 11.4009 11.3665 11.4009 11.0904C11.4009 10.8142 11.1771 10.5903 10.9009 10.5903C10.6247 10.5903 10.4009 10.8142 10.4009 11.0904C10.4009 11.3665 10.6247 11.5904 10.9009 11.5904Z" stroke="#404040" stroke-width="0.996054" stroke-linecap="round" stroke-linejoin="round"/>
<path d="M1.40039 1.08936H3.4005L4.74057 7.78472C4.7863 8.01493 4.91154 8.22172 5.09436 8.3689C5.27719 8.51607 5.50596 8.59426 5.74063 8.58976H10.6009C10.8356 8.59426 11.0643 8.51607 11.2472 8.3689C11.43 8.22172 11.5552 8.01493 11.6009 7.78472L12.401 3.58949H3.90053" stroke="#404040" stroke-width="0.996054" stroke-linecap="round" stroke-linejoin="round"/>
</svg>
