<svg width="20" height="19" viewBox="0 0 20 19" fill="none" xmlns="http://www.w3.org/2000/svg">
<g id="Group 124">
<g id="Group 99">
<g id="Group 98">
<path id="Vector" d="M7.69348 17.3923C8.11261 17.3923 8.45238 17.0526 8.45238 16.6334C8.45238 16.2143 8.11261 15.8745 7.69348 15.8745C7.27434 15.8745 6.93457 16.2143 6.93457 16.6334C6.93457 17.0526 7.27434 17.3923 7.69348 17.3923Z" stroke="#F8964C" stroke-width="2" stroke-linecap="round" stroke-linejoin="round"/>
<path id="Vector_2" d="M16.0402 17.3923C16.4593 17.3923 16.7991 17.0526 16.7991 16.6334C16.7991 16.2143 16.4593 15.8745 16.0402 15.8745C15.621 15.8745 15.2812 16.2143 15.2812 16.6334C15.2812 17.0526 15.621 17.3923 16.0402 17.3923Z" stroke="#F8964C" stroke-width="2" stroke-linecap="round" stroke-linejoin="round"/>
<path id="Vector_3" d="M1.62012 1.45508H4.65574L6.68961 11.6168C6.75901 11.9662 6.94909 12.2801 7.22658 12.5035C7.50406 12.7268 7.85127 12.8455 8.20743 12.8387H15.584C15.9402 12.8455 16.2874 12.7268 16.5649 12.5035C16.8423 12.2801 17.0324 11.9662 17.1018 11.6168L18.3161 5.24961H5.41465" stroke="#F8964C" stroke-width="2" stroke-linecap="round" stroke-linejoin="round"/>
</g>
</g>
</g>
</svg>
