<svg width="23" height="19" viewBox="0 0 23 19" fill="none" xmlns="http://www.w3.org/2000/svg">
<path d="M13.1504 1.02539H3.58008C2.47551 1.02539 1.58008 1.92082 1.58008 3.02539V10.7863C1.58008 11.8909 2.47551 12.7863 3.58008 12.7863H13.1504C14.255 12.7863 15.1504 11.8909 15.1504 10.7863V3.02539C15.1504 1.92082 14.255 1.02539 13.1504 1.02539Z" stroke="#22A447" stroke-width="2" stroke-linecap="round" stroke-linejoin="round"/>
<path d="M15.1494 7.54981C15.1494 6.44524 16.0448 5.5498 17.1494 5.5498H17.9397C18.4702 5.5498 18.9789 5.76052 19.354 6.13559L20.8964 7.67808C21.2715 8.05316 21.4822 8.56186 21.4822 9.0923V10.7873C21.4822 11.8919 20.5868 12.7873 19.4822 12.7873H17.1494C16.0448 12.7873 15.1494 11.8919 15.1494 10.7873V7.54981Z" stroke="#22A447" stroke-width="2" stroke-linecap="round" stroke-linejoin="round"/>
<path d="M5.65137 17.3086C6.90048 17.3086 7.91309 16.296 7.91309 15.0469C7.91309 13.7978 6.90048 12.7852 5.65137 12.7852C4.40226 12.7852 3.38965 13.7978 3.38965 15.0469C3.38965 16.296 4.40226 17.3086 5.65137 17.3086Z" stroke="#22A447" stroke-width="2" stroke-linecap="round" stroke-linejoin="round"/>
<path d="M17.4111 17.3086C18.6603 17.3086 19.6729 16.296 19.6729 15.0469C19.6729 13.7978 18.6603 12.7852 17.4111 12.7852C16.162 12.7852 15.1494 13.7978 15.1494 15.0469C15.1494 16.296 16.162 17.3086 17.4111 17.3086Z" stroke="#22A447" stroke-width="2" stroke-linecap="round" stroke-linejoin="round"/>
</svg>
