<svg width="25" height="25" viewBox="0 0 25 25" fill="none" xmlns="http://www.w3.org/2000/svg">
<path d="M12.7564 11.4599L7.24741 16.9699L5.37741 16.1929L5.21041 16.3619L7.59041 17.9489L9.17841 20.3289L9.34641 20.1609L8.57041 18.2909L14.0794 12.7829L18.4074 19.0349L18.6174 18.8269L15.7304 11.1309L20.1304 6.73292C20.2965 6.55561 20.3872 6.32066 20.3832 6.07774C20.3792 5.83481 20.281 5.60294 20.1092 5.43115C19.9374 5.25935 19.7055 5.16109 19.4626 5.15712C19.2197 5.15316 18.9847 5.24381 18.8074 5.40992L14.4074 9.80892L6.71341 6.92292L6.50341 7.13192L12.7564 11.4599ZM18.1464 21.9429L13.8164 15.6899L10.7764 18.7299L11.5534 20.5999L8.88741 23.2649L6.24241 19.2979L2.27441 16.6519L4.94041 13.9859L6.80941 14.7619L9.84941 11.7219L3.59641 7.39392L6.24241 4.74892L13.9374 7.63392L17.4844 4.08692C17.7438 3.82124 18.0534 3.60969 18.3951 3.46453C18.7369 3.31937 19.1041 3.24348 19.4754 3.24126C19.8467 3.23904 20.2147 3.31054 20.5582 3.45161C20.9017 3.59268 21.2137 3.80051 21.4763 4.06307C21.7388 4.32563 21.9467 4.63768 22.0877 4.98115C22.2288 5.32462 22.3003 5.69267 22.2981 6.06397C22.2959 6.43528 22.22 6.80245 22.0748 7.14421C21.9296 7.48597 21.7181 7.79552 21.4524 8.05492L17.9054 11.6019L20.7914 19.2979L18.1454 21.9429H18.1464Z" fill="#70A6E8"/>
</svg>
